<?xml version="1.0" encoding="UTF-8"?>
<!DOCTYPE svg PUBLIC "-//W3C//DTD SVG 1.1//EN" "http://www.w3.org/Graphics/SVG/1.1/DTD/svg11.dtd">
<svg xmlns="http://www.w3.org/2000/svg" version="1.1" width="350px" height="308px" style="shape-rendering:geometricPrecision; text-rendering:geometricPrecision; image-rendering:optimizeQuality; fill-rule:evenodd; clip-rule:evenodd" xmlns:xlink="http://www.w3.org/1999/xlink">
<g><path style="opacity:0.686" fill="#8f3333" d="M 270.5,20.5 C 235.167,20.5 199.833,20.5 164.5,20.5C 167.641,19.6787 170.975,19.1787 174.5,19C 203.5,18.3333 232.5,18.3333 261.5,19C 264.695,19.1805 267.695,19.6805 270.5,20.5 Z"/></g>
<g><path style="opacity:0.142" fill="#9f2323" d="M 71.5,25.5 C 68.8221,24.3324 66.1554,23.1657 63.5,22C 50.8377,21.5001 38.1711,21.3334 25.5,21.5C 25.5465,24.9686 26.2132,28.302 27.5,31.5C 24.5557,28.5136 22.889,24.8469 22.5,20.5C 36.8372,20.3334 51.1705,20.5001 65.5,21C 68.1767,21.8136 70.1767,23.3136 71.5,25.5 Z"/></g>
<g><path style="opacity:1" fill="#f03432" d="M 164.5,21.5 C 167.39,21.278 170.057,21.9447 172.5,23.5C 176.796,22.4075 181.13,22.4075 185.5,23.5C 200.604,27.1302 215.937,29.1302 231.5,29.5C 232.09,30.7989 233.09,31.6322 234.5,32C 238.145,32.7189 241.812,33.2189 245.5,33.5C 245.92,35.674 245.92,37.674 245.5,39.5C 248.803,40.4396 252.136,41.273 255.5,42C 252.447,42.1786 249.447,42.6786 246.5,43.5C 247.193,44.5178 247.859,45.5178 248.5,46.5C 238.471,44.7921 228.305,43.7921 218,43.5C 215.803,43.6514 213.636,43.9848 211.5,44.5C 210.263,44.4435 209.263,43.9435 208.5,43C 220.5,42.6667 232.5,42.3333 244.5,42C 244.167,41.6667 243.833,41.3333 243.5,41C 237.917,40.8089 232.417,40.3089 227,39.5C 226,39.8333 225,40.1667 224,40.5C 222.527,38.9929 220.693,38.3262 218.5,38.5C 205.87,40.6048 193.537,41.4381 181.5,41C 180.09,42.2675 178.424,42.2675 176.5,41C 175.167,40.3333 175.167,39.6667 176.5,39C 173.106,38.2483 169.773,38.4149 166.5,39.5C 165.1,37.6041 163.267,36.2707 161,35.5C 160.127,35.7355 159.293,36.0688 158.5,36.5C 155.788,34.7397 152.788,34.073 149.5,34.5C 149.5,32.8333 149.5,31.1667 149.5,29.5C 152.004,30.6392 154.67,31.3059 157.5,31.5C 158.735,29.2271 158.402,27.3938 156.5,26C 158.392,25.0266 160.392,24.3599 162.5,24C 163.381,23.2917 164.047,22.4584 164.5,21.5 Z"/></g>
<g><path style="opacity:1" fill="#b93637" d="M 164.5,20.5 C 164.5,20.8333 164.5,21.1667 164.5,21.5C 159.631,22.6012 155.298,24.7678 151.5,28C 150.207,28.49 148.873,28.6567 147.5,28.5C 152.216,23.9771 157.883,21.3104 164.5,20.5 Z"/></g>
<g><path style="opacity:0.631" fill="#9c3234" d="M 270.5,20.5 C 282.093,21.9656 292.093,26.6323 300.5,34.5C 296.222,32.0235 291.888,29.5235 287.5,27C 281.628,25.0448 275.961,22.8781 270.5,20.5 Z"/></g>
<g><path style="opacity:0.576" fill="#8e2020" d="M 27.5,31.5 C 29.873,33.5792 31.2064,36.2459 31.5,39.5C 29.6036,37.1632 28.2703,34.4965 27.5,31.5 Z"/></g>
<g><path style="opacity:1" fill="#ef3734" d="M 164.5,21.5 C 164.5,21.1667 164.5,20.8333 164.5,20.5C 199.833,20.5 235.167,20.5 270.5,20.5C 275.961,22.8781 281.628,25.0448 287.5,27C 291.888,29.5235 296.222,32.0235 300.5,34.5C 302.167,35.5 303.5,36.8333 304.5,38.5C 304.343,39.8734 304.51,41.2068 305,42.5C 307.79,45.2899 310.623,47.9566 313.5,50.5C 313.335,54.5788 314.669,57.9122 317.5,60.5C 318.826,66.8044 319.826,73.1378 320.5,79.5C 319.852,77.5018 319.019,75.5018 318,73.5C 317.667,76.8333 317.333,80.1667 317,83.5C 316.751,82.376 316.251,81.376 315.5,80.5C 314.148,81.5175 313.148,82.8508 312.5,84.5C 311.702,82.9223 311.202,81.2556 311,79.5C 305.414,78.703 299.747,78.703 294,79.5C 291.822,76.5315 290.656,76.8649 290.5,80.5C 288.932,78.1891 288.098,75.5224 288,72.5C 287.329,71.7476 286.496,71.4142 285.5,71.5C 285.5,70.8333 285.5,70.1667 285.5,69.5C 284.962,67.8828 284.629,66.2161 284.5,64.5C 283.5,64.5 282.5,64.5 281.5,64.5C 279.833,62.5 278.167,60.5 276.5,58.5C 275.058,57.1805 274.392,55.5138 274.5,53.5C 271.164,52.3968 267.83,51.2302 264.5,50C 262.19,49.5034 259.857,49.3367 257.5,49.5C 255.159,47.1494 252.159,46.1494 248.5,46.5C 247.859,45.5178 247.193,44.5178 246.5,43.5C 249.447,42.6786 252.447,42.1786 255.5,42C 252.136,41.273 248.803,40.4396 245.5,39.5C 245.92,37.674 245.92,35.674 245.5,33.5C 241.812,33.2189 238.145,32.7189 234.5,32C 233.09,31.6322 232.09,30.7989 231.5,29.5C 215.937,29.1302 200.604,27.1302 185.5,23.5C 181.13,22.4075 176.796,22.4075 172.5,23.5C 170.057,21.9447 167.39,21.278 164.5,21.5 Z"/></g>
<g><path style="opacity:1" fill="#d8211e" d="M 71.5,25.5 C 71.8333,25.5 72.1667,25.5 72.5,25.5C 73.8363,31.854 76.1696,37.854 79.5,43.5C 78.1603,44.9896 77.1603,46.6563 76.5,48.5C 75.5788,49.981 74.4121,51.3144 73,52.5C 72.5,52.1667 72,51.8333 71.5,51.5C 73.9999,48.9383 73.6665,46.605 70.5,44.5C 69.1552,45.3467 68.1552,46.5134 67.5,48C 62.5634,49.0855 57.5634,49.7521 52.5,50C 49.2901,53.0864 45.9568,55.9197 42.5,58.5C 42.0081,56.1591 40.8415,54.1591 39,52.5C 38.51,51.2068 38.3433,49.8734 38.5,48.5C 37.5,48.5 36.5,48.5 35.5,48.5C 35.5,48.1667 35.5,47.8333 35.5,47.5C 35.4681,44.0058 34.1347,41.3392 31.5,39.5C 31.2064,36.2459 29.873,33.5792 27.5,31.5C 26.2132,28.302 25.5465,24.9686 25.5,21.5C 38.1711,21.3334 50.8377,21.5001 63.5,22C 66.1554,23.1657 68.8221,24.3324 71.5,25.5 Z"/></g>
<g><path style="opacity:1" fill="#e7302d" d="M 164.5,21.5 C 164.047,22.4584 163.381,23.2917 162.5,24C 160.392,24.3599 158.392,25.0266 156.5,26C 158.402,27.3938 158.735,29.2271 157.5,31.5C 154.67,31.3059 152.004,30.6392 149.5,29.5C 149.5,31.1667 149.5,32.8333 149.5,34.5C 152.788,34.073 155.788,34.7397 158.5,36.5C 159.293,36.0688 160.127,35.7355 161,35.5C 163.267,36.2707 165.1,37.6041 166.5,39.5C 169.773,38.4149 173.106,38.2483 176.5,39C 175.167,39.6667 175.167,40.3333 176.5,41C 178.424,42.2675 180.09,42.2675 181.5,41C 193.537,41.4381 205.87,40.6048 218.5,38.5C 220.693,38.3262 222.527,38.9929 224,40.5C 225,40.1667 226,39.8333 227,39.5C 232.417,40.3089 237.917,40.8089 243.5,41C 243.833,41.3333 244.167,41.6667 244.5,42C 232.5,42.3333 220.5,42.6667 208.5,43C 209.263,43.9435 210.263,44.4435 211.5,44.5C 213.636,43.9848 215.803,43.6514 218,43.5C 228.305,43.7921 238.471,44.7921 248.5,46.5C 252.159,46.1494 255.159,47.1494 257.5,49.5C 229.159,49.1669 200.825,49.5002 172.5,50.5C 170.19,52.4825 167.523,53.4825 164.5,53.5C 164.167,56.1667 163.833,58.8333 163.5,61.5C 161.738,62.2623 160.738,63.5956 160.5,65.5C 159.71,64.3915 159.21,63.0581 159,61.5C 157.667,60.8333 156.333,60.1667 155,59.5C 154.182,50.9833 152.682,50.6499 150.5,58.5C 149.719,57.2713 149.219,55.938 149,54.5C 147.152,53.6363 144.986,53.6363 142.5,54.5C 141.289,59.2247 140.789,63.8913 141,68.5C 138.637,66.6339 136.47,64.6339 134.5,62.5C 134.335,59.1501 134.502,55.8168 135,52.5C 136.608,47.8443 138.108,43.1776 139.5,38.5C 141.033,34.296 143.7,30.9626 147.5,28.5C 148.873,28.6567 150.207,28.49 151.5,28C 155.298,24.7678 159.631,22.6012 164.5,21.5 Z"/></g>
<g><path style="opacity:1" fill="#ac3436" d="M 304.5,38.5 C 308.262,41.9289 311.262,45.9289 313.5,50.5C 310.623,47.9566 307.79,45.2899 305,42.5C 304.51,41.2068 304.343,39.8734 304.5,38.5 Z"/></g>
<g><path style="opacity:0.929" fill="#8d2120" d="M 31.5,39.5 C 34.1347,41.3392 35.4681,44.0058 35.5,47.5C 33.6378,45.1089 32.3045,42.4422 31.5,39.5 Z"/></g>
<g><path style="opacity:1" fill="#b42725" d="M 72.5,25.5 C 77.3944,34.2859 82.061,43.2859 86.5,52.5C 84.2236,50.7278 82.0569,48.7278 80,46.5C 79.4666,48.9386 78.3,49.6052 76.5,48.5C 77.1603,46.6563 78.1603,44.9896 79.5,43.5C 76.1696,37.854 73.8363,31.854 72.5,25.5 Z"/></g>
<g><path style="opacity:0.312" fill="#8d1f1e" d="M 257.5,49.5 C 257.5,49.8333 257.5,50.1667 257.5,50.5C 230.831,50.3334 204.165,50.5 177.5,51C 170.928,52.0854 166.261,55.5854 163.5,61.5C 163.833,58.8333 164.167,56.1667 164.5,53.5C 167.523,53.4825 170.19,52.4825 172.5,50.5C 200.825,49.5002 229.159,49.1669 257.5,49.5 Z"/></g>
<g><path style="opacity:1" fill="#bd3634" d="M 257.5,50.5 C 257.5,50.1667 257.5,49.8333 257.5,49.5C 259.857,49.3367 262.19,49.5034 264.5,50C 267.83,51.2302 271.164,52.3968 274.5,53.5C 274.392,55.5138 275.058,57.1805 276.5,58.5C 270.691,54.6722 264.358,52.0056 257.5,50.5 Z"/></g>
<g><path style="opacity:1" fill="#ad3132" d="M 313.5,50.5 C 314.751,52.3819 315.918,54.3819 317,56.5C 317.49,57.7932 317.657,59.1266 317.5,60.5C 314.669,57.9122 313.335,54.5788 313.5,50.5 Z"/></g>
<g><path style="opacity:0.838" fill="#9f2b29" d="M 139.5,38.5 C 138.108,43.1776 136.608,47.8443 135,52.5C 134.502,55.8168 134.335,59.1501 134.5,62.5C 134.508,65.5448 134.841,68.5448 135.5,71.5C 135.167,71.5 134.833,71.5 134.5,71.5C 131.751,62.1656 132.251,52.8323 136,43.5C 136.697,41.4156 137.864,39.7489 139.5,38.5 Z"/></g>
<g><path style="opacity:1" fill="#dd2621" d="M 160.5,65.5 C 160.83,84.0076 160.497,102.341 159.5,120.5C 155.299,112.763 151.632,104.763 148.5,96.5C 147.5,96.5 146.5,96.5 145.5,96.5C 145.5,96.1667 145.5,95.8333 145.5,95.5C 145.201,91.8945 144.035,88.5612 142,85.5C 141.329,84.7476 140.496,84.4142 139.5,84.5C 139.5,84.1667 139.5,83.8333 139.5,83.5C 138.164,79.4963 136.831,75.4963 135.5,71.5C 134.841,68.5448 134.508,65.5448 134.5,62.5C 136.47,64.6339 138.637,66.6339 141,68.5C 140.789,63.8913 141.289,59.2247 142.5,54.5C 144.986,53.6363 147.152,53.6363 149,54.5C 149.219,55.938 149.719,57.2713 150.5,58.5C 152.682,50.6499 154.182,50.9833 155,59.5C 156.333,60.1667 157.667,60.8333 159,61.5C 159.21,63.0581 159.71,64.3915 160.5,65.5 Z"/></g>
<g><path style="opacity:0.886" fill="#a23131" d="M 281.5,64.5 C 282.5,64.5 283.5,64.5 284.5,64.5C 284.629,66.2161 284.962,67.8828 285.5,69.5C 283.937,68.0552 282.604,66.3885 281.5,64.5 Z"/></g>
<g><path style="opacity:1" fill="#cb1b18" d="M 76.5,48.5 C 78.3,49.6052 79.4666,48.9386 80,46.5C 82.0569,48.7278 84.2236,50.7278 86.5,52.5C 89.3411,56.8489 91.6745,61.5156 93.5,66.5C 94.6995,71.6831 96.3662,76.6831 98.5,81.5C 98.0919,82.6431 97.4252,83.6431 96.5,84.5C 95.1667,81.5 93.8333,78.5 92.5,75.5C 91.7719,78.2125 90.9385,80.8791 90,83.5C 88.4078,81.5074 86.9078,79.5074 85.5,77.5C 80.2302,78.4512 74.8968,78.7846 69.5,78.5C 69.8206,75.1198 68.8206,74.2865 66.5,76C 66.2616,78.5624 67.2616,80.8957 69.5,83C 67.3449,83.0953 65.3449,83.9286 63.5,85.5C 64.9723,91.8739 66.8057,91.8739 69,85.5C 70.7441,86.6492 70.9108,87.9825 69.5,89.5C 67.1018,90.8975 65.4351,92.8975 64.5,95.5C 63.2638,94.7542 61.9305,94.4208 60.5,94.5C 60.2606,92.5328 60.5939,90.6995 61.5,89C 60.7471,87.513 59.9138,87.3463 59,88.5C 57.9137,84.3778 56.5803,80.3778 55,76.5C 53.3866,77.6223 52.2199,77.1223 51.5,75C 51.9574,74.586 52.2907,74.086 52.5,73.5C 49.5901,71.3759 48.7568,68.7092 50,65.5C 48.8545,66.6843 47.6879,66.6843 46.5,65.5C 44.9138,63.3295 43.5804,60.9962 42.5,58.5C 45.9568,55.9197 49.2901,53.0864 52.5,50C 57.5634,49.7521 62.5634,49.0855 67.5,48C 68.1552,46.5134 69.1552,45.3467 70.5,44.5C 73.6665,46.605 73.9999,48.9383 71.5,51.5C 72,51.8333 72.5,52.1667 73,52.5C 74.4121,51.3144 75.5788,49.981 76.5,48.5 Z"/></g>
<g><path style="opacity:0.91" fill="#94201f" d="M 35.5,48.5 C 36.5,48.5 37.5,48.5 38.5,48.5C 38.3433,49.8734 38.51,51.2068 39,52.5C 40.8415,54.1591 42.0081,56.1591 42.5,58.5C 43.5804,60.9962 44.9138,63.3295 46.5,65.5C 48.2169,68.9802 49.5502,72.6468 50.5,76.5C 45.0513,67.6142 40.0513,58.2809 35.5,48.5 Z"/></g>
<g><path style="opacity:0.643" fill="#802323" d="M 134.5,71.5 C 134.833,71.5 135.167,71.5 135.5,71.5C 136.831,75.4963 138.164,79.4963 139.5,83.5C 136.763,80.0169 135.097,76.0169 134.5,71.5 Z"/></g>
<g><path style="opacity:0.459" fill="#4e1b17" d="M 51.5,80.5 C 53.0481,80.8212 53.7148,81.8212 53.5,83.5C 52.5987,82.7095 51.9321,81.7095 51.5,80.5 Z"/></g>
<g><path style="opacity:0.906" fill="#c5312e" d="M 163.5,61.5 C 163.167,62.8333 162.833,64.1667 162.5,65.5C 162.163,85.0216 161.163,104.355 159.5,123.5C 159.5,123.167 159.5,122.833 159.5,122.5C 159.5,121.833 159.5,121.167 159.5,120.5C 160.497,102.341 160.83,84.0076 160.5,65.5C 160.738,63.5956 161.738,62.2623 163.5,61.5 Z"/></g>
<g><path style="opacity:0.237" fill="#510e0f" d="M 162.5,65.5 C 162.833,85.8443 162.5,106.178 161.5,126.5C 160.575,125.643 159.908,124.643 159.5,123.5C 161.163,104.355 162.163,85.0216 162.5,65.5 Z"/></g>
<g><path style="opacity:0.871" fill="#9a2826" d="M 139.5,84.5 C 140.496,84.4142 141.329,84.7476 142,85.5C 144.035,88.5612 145.201,91.8945 145.5,95.5C 143.262,92.0283 141.262,88.3617 139.5,84.5 Z"/></g>
<g><path style="opacity:0.855" fill="#7b1719" d="M 53.5,84.5 C 54.5,84.5 55.5,84.5 56.5,84.5C 57.5,87.8333 58.5,91.1667 59.5,94.5C 57.5146,91.2024 55.5146,87.8691 53.5,84.5 Z"/></g>
<g><path style="opacity:1" fill="#b33430" d="M 285.5,71.5 C 286.496,71.4142 287.329,71.7476 288,72.5C 288.098,75.5224 288.932,78.1891 290.5,80.5C 290.81,83.7131 290.477,86.7131 289.5,89.5C 289.806,86.6146 289.473,83.9479 288.5,81.5C 287.807,78.0585 286.807,74.7252 285.5,71.5 Z"/></g>
<g><path style="opacity:1" fill="#8d1e1e" d="M 93.5,66.5 C 100.861,79.8948 107.861,93.5615 114.5,107.5C 112.357,105.869 110.69,103.869 109.5,101.5C 107.029,95.8857 104.529,90.219 102,84.5C 100.961,83.2899 99.7942,82.2899 98.5,81.5C 96.3662,76.6831 94.6995,71.6831 93.5,66.5 Z"/></g>
<g><path style="opacity:1" fill="#c01715" d="M 46.5,65.5 C 47.6879,66.6843 48.8545,66.6843 50,65.5C 48.7568,68.7092 49.5901,71.3759 52.5,73.5C 52.2907,74.086 51.9574,74.586 51.5,75C 52.2199,77.1223 53.3866,77.6223 55,76.5C 56.5803,80.3778 57.9137,84.3778 59,88.5C 59.9138,87.3463 60.7471,87.513 61.5,89C 60.5939,90.6995 60.2606,92.5328 60.5,94.5C 61.9305,94.4208 63.2638,94.7542 64.5,95.5C 65.4351,92.8975 67.1018,90.8975 69.5,89.5C 70.9108,87.9825 70.7441,86.6492 69,85.5C 66.8057,91.8739 64.9723,91.8739 63.5,85.5C 65.3449,83.9286 67.3449,83.0953 69.5,83C 67.2616,80.8957 66.2616,78.5624 66.5,76C 68.8206,74.2865 69.8206,75.1198 69.5,78.5C 74.8968,78.7846 80.2302,78.4512 85.5,77.5C 86.9078,79.5074 88.4078,81.5074 90,83.5C 90.9385,80.8791 91.7719,78.2125 92.5,75.5C 93.8333,78.5 95.1667,81.5 96.5,84.5C 97.4252,83.6431 98.0919,82.6431 98.5,81.5C 99.7942,82.2899 100.961,83.2899 102,84.5C 104.529,90.219 107.029,95.8857 109.5,101.5C 108.458,102.791 107.292,102.791 106,101.5C 105.881,105.906 104.047,109.406 100.5,112C 95.8333,112.333 91.1667,112.667 86.5,113C 85.9288,114.205 85.2621,115.372 84.5,116.5C 82.1167,115.538 81.1167,116.538 81.5,119.5C 80.5,119.5 79.5,119.5 78.5,119.5C 78.7692,121.429 78.2692,123.095 77,124.5C 75.3415,121.023 74.1749,117.357 73.5,113.5C 72.5,113.5 71.5,113.5 70.5,113.5C 68.9017,109.289 66.5684,105.622 63.5,102.5C 61.6418,100.117 60.3084,97.4502 59.5,94.5C 58.5,91.1667 57.5,87.8333 56.5,84.5C 55.5,84.5 54.5,84.5 53.5,84.5C 53.5,84.1667 53.5,83.8333 53.5,83.5C 53.7148,81.8212 53.0481,80.8212 51.5,80.5C 50.7659,79.2921 50.4326,77.9587 50.5,76.5C 49.5502,72.6468 48.2169,68.9802 46.5,65.5 Z"/></g>
<g><path style="opacity:1" fill="#da2421" d="M 320.5,79.5 C 320.9,87.9644 320.233,96.2977 318.5,104.5C 316.408,104.561 314.908,105.561 314,107.5C 312.684,106.026 311.684,104.359 311,102.5C 309.869,103.604 309.035,103.271 308.5,101.5C 303.178,100.001 298.012,100.334 293,102.5C 291.7,101.293 290.2,100.626 288.5,100.5C 288.5,99.5 288.5,98.5 288.5,97.5C 289.092,94.8728 289.425,92.2062 289.5,89.5C 290.477,86.7131 290.81,83.7131 290.5,80.5C 290.656,76.8649 291.822,76.5315 294,79.5C 299.747,78.703 305.414,78.703 311,79.5C 311.202,81.2556 311.702,82.9223 312.5,84.5C 313.148,82.8508 314.148,81.5175 315.5,80.5C 316.251,81.376 316.751,82.376 317,83.5C 317.333,80.1667 317.667,76.8333 318,73.5C 319.019,75.5018 319.852,77.5018 320.5,79.5 Z"/></g>
<g><path style="opacity:1" fill="#b61311" d="M 109.5,101.5 C 110.69,103.869 112.357,105.869 114.5,107.5C 115.167,107.5 115.5,107.833 115.5,108.5C 115.609,111.899 116.942,114.566 119.5,116.5C 119.5,116.833 119.5,117.167 119.5,117.5C 120.537,122.575 121.87,127.575 123.5,132.5C 120.706,134.819 118.872,137.819 118,141.5C 114.656,141.039 111.489,140.039 108.5,138.5C 103.878,142.137 99.3779,142.137 95,138.5C 94.5,138.833 94,139.167 93.5,139.5C 94.4776,141.685 94.3109,144.018 93,146.5C 89.9556,143.949 86.7889,141.616 83.5,139.5C 82.8442,133.032 80.1775,128.699 75.5,126.5C 75.1249,122.093 73.4583,118.426 70.5,115.5C 70.5,114.833 70.5,114.167 70.5,113.5C 71.5,113.5 72.5,113.5 73.5,113.5C 74.1749,117.357 75.3415,121.023 77,124.5C 78.2692,123.095 78.7692,121.429 78.5,119.5C 79.5,119.5 80.5,119.5 81.5,119.5C 81.1167,116.538 82.1167,115.538 84.5,116.5C 85.2621,115.372 85.9288,114.205 86.5,113C 91.1667,112.667 95.8333,112.333 100.5,112C 104.047,109.406 105.881,105.906 106,101.5C 107.292,102.791 108.458,102.791 109.5,101.5 Z"/></g>
<g><path style="opacity:0.745" fill="#8e2423" d="M 145.5,96.5 C 146.5,96.5 147.5,96.5 148.5,96.5C 151.632,104.763 155.299,112.763 159.5,120.5C 159.5,121.167 159.5,121.833 159.5,122.5C 154.655,113.999 149.989,105.332 145.5,96.5 Z"/></g>
<g><path style="opacity:1" fill="#841a1c" d="M 288.5,81.5 C 289.473,83.9479 289.806,86.6146 289.5,89.5C 289.425,92.2062 289.092,94.8728 288.5,97.5C 287.113,99.8766 286.279,102.543 286,105.5C 280.762,112.25 274.262,117.25 266.5,120.5C 265.833,120.5 265.167,120.5 264.5,120.5C 281.556,113.242 289.556,100.242 288.5,81.5 Z"/></g>
<g><path style="opacity:1" fill="#992122" d="M 317.5,60.5 C 325.192,82.2568 323.359,103.257 312,123.5C 309.282,127.381 306.116,130.715 302.5,133.5C 302.67,132.178 302.337,131.011 301.5,130C 302.094,129.536 302.761,129.369 303.5,129.5C 305.176,128.817 305.843,127.483 305.5,125.5C 306.5,125.5 307.5,125.5 308.5,125.5C 308.5,124.167 308.5,122.833 308.5,121.5C 309.822,121.67 310.989,121.337 312,120.5C 314.015,115.046 316.181,109.712 318.5,104.5C 320.233,96.2977 320.9,87.9644 320.5,79.5C 319.826,73.1378 318.826,66.8044 317.5,60.5 Z"/></g>
<g><path style="opacity:0.722" fill="#891c1d" d="M 63.5,102.5 C 66.5684,105.622 68.9017,109.289 70.5,113.5C 70.5,114.167 70.5,114.833 70.5,115.5C 67.6149,111.554 65.2815,107.221 63.5,102.5 Z"/></g>
<g><path style="opacity:0.722" fill="#6a1a1a" d="M 115.5,108.5 C 117.2,110.9 118.533,113.566 119.5,116.5C 116.942,114.566 115.609,111.899 115.5,108.5 Z"/></g>
<g><path style="opacity:1" fill="#c71917" d="M 288.5,97.5 C 288.5,98.5 288.5,99.5 288.5,100.5C 290.2,100.626 291.7,101.293 293,102.5C 298.012,100.334 303.178,100.001 308.5,101.5C 309.035,103.271 309.869,103.604 311,102.5C 311.684,104.359 312.684,106.026 314,107.5C 314.908,105.561 316.408,104.561 318.5,104.5C 316.181,109.712 314.015,115.046 312,120.5C 310.989,121.337 309.822,121.67 308.5,121.5C 308.5,122.833 308.5,124.167 308.5,125.5C 307.5,125.5 306.5,125.5 305.5,125.5C 305.843,127.483 305.176,128.817 303.5,129.5C 303.217,128.711 302.717,128.044 302,127.5C 299.571,128.029 297.738,129.363 296.5,131.5C 286.772,129.798 279.105,128.464 273.5,127.5C 273.5,128.5 273.5,129.5 273.5,130.5C 269.916,129.454 266.25,128.621 262.5,128C 263.833,127.333 264.833,126.333 265.5,125C 264.833,124.833 264.167,124.667 263.5,124.5C 261.423,125.937 259.09,126.604 256.5,126.5C 256.5,125.5 256.5,124.5 256.5,123.5C 259.572,123.817 262.572,123.484 265.5,122.5C 265.863,121.817 266.196,121.15 266.5,120.5C 274.262,117.25 280.762,112.25 286,105.5C 286.279,102.543 287.113,99.8766 288.5,97.5 Z"/></g>
<g><path style="opacity:0.525" fill="#731516" d="M 70.5,115.5 C 73.4583,118.426 75.1249,122.093 75.5,126.5C 73.2667,123.151 71.6,119.485 70.5,115.5 Z"/></g>
<g><path style="opacity:0.82" fill="#78161b" d="M 264.5,120.5 C 264.389,121.117 264.056,121.617 263.5,122C 261.19,122.497 258.857,122.663 256.5,122.5C 259.003,121.629 261.67,120.963 264.5,120.5 Z"/></g>
<g><path style="opacity:0.09" fill="#74110f" d="M 255.5,122.5 C 255.158,123.338 254.492,123.672 253.5,123.5C 234.497,123.333 215.497,123.5 196.5,124C 195.627,125.045 194.627,125.878 193.5,126.5C 193.511,124.983 194.177,123.816 195.5,123C 215.497,122.5 235.497,122.333 255.5,122.5 Z"/></g>
<g><path style="opacity:1" fill="#bc1613" d="M 264.5,120.5 C 265.167,120.5 265.833,120.5 266.5,120.5C 266.196,121.15 265.863,121.817 265.5,122.5C 262.572,123.484 259.572,123.817 256.5,123.5C 256.5,124.5 256.5,125.5 256.5,126.5C 259.09,126.604 261.423,125.937 263.5,124.5C 264.167,124.667 264.833,124.833 265.5,125C 264.833,126.333 263.833,127.333 262.5,128C 266.25,128.621 269.916,129.454 273.5,130.5C 273.5,129.5 273.5,128.5 273.5,127.5C 279.105,128.464 286.772,129.798 296.5,131.5C 297.738,129.363 299.571,128.029 302,127.5C 302.717,128.044 303.217,128.711 303.5,129.5C 302.761,129.369 302.094,129.536 301.5,130C 302.337,131.011 302.67,132.178 302.5,133.5C 302.5,134.833 301.833,135.5 300.5,135.5C 298.708,135.634 297.042,135.301 295.5,134.5C 295.631,133.624 295.298,132.957 294.5,132.5C 293.571,133.689 293.238,135.022 293.5,136.5C 291.712,136.785 290.045,136.452 288.5,135.5C 289.894,134.313 289.727,133.646 288,133.5C 284.45,135.198 281.284,137.531 278.5,140.5C 275.252,137.881 272.085,137.881 269,140.5C 266.667,136.5 264.333,136.5 262,140.5C 261.517,139.552 261.351,138.552 261.5,137.5C 249.356,137.325 237.356,135.992 225.5,133.5C 222.532,135.814 219.865,135.647 217.5,133C 210.056,132.267 202.723,131.767 195.5,131.5C 194.025,128.755 194.691,126.588 197.5,125C 216.338,124.832 235.004,124.332 253.5,123.5C 254.492,123.672 255.158,123.338 255.5,122.5C 255.833,122.5 256.167,122.5 256.5,122.5C 258.857,122.663 261.19,122.497 263.5,122C 264.056,121.617 264.389,121.117 264.5,120.5 Z"/></g>
<g><path style="opacity:1" fill="#991a1a" d="M 119.5,117.5 C 124.928,126.021 129.595,135.021 133.5,144.5C 132.504,144.586 131.671,144.252 131,143.5C 129.333,140.167 127.667,136.833 126,133.5C 125.329,132.748 124.496,132.414 123.5,132.5C 121.87,127.575 120.537,122.575 119.5,117.5 Z"/></g>
<g><path style="opacity:1" fill="#8f1a18" d="M 75.5,126.5 C 80.1775,128.699 82.8442,133.032 83.5,139.5C 83.5,140.167 83.5,140.833 83.5,141.5C 80.595,136.693 77.9283,131.693 75.5,126.5 Z"/></g>
<g><path style="opacity:0.875" fill="#7b1718" d="M 193.5,127.5 C 191.729,133.045 189.396,138.379 186.5,143.5C 185.872,145.662 184.539,147.328 182.5,148.5C 185.738,141.266 189.405,134.266 193.5,127.5 Z"/></g>
<g><path style="opacity:1" fill="#931817" d="M 295.5,134.5 C 297.042,135.301 298.708,135.634 300.5,135.5C 300.489,137.017 299.823,138.184 298.5,139C 295.444,140.856 292.444,142.689 289.5,144.5C 290.686,142.519 292.019,140.519 293.5,138.5C 294.425,139.641 295.259,139.641 296,138.5C 296.195,137.181 296.028,135.847 295.5,134.5 Z"/></g>
<g><path style="opacity:1" fill="#b41311" d="M 253.5,123.5 C 235.004,124.332 216.338,124.832 197.5,125C 194.691,126.588 194.025,128.755 195.5,131.5C 202.723,131.767 210.056,132.267 217.5,133C 219.865,135.647 222.532,135.814 225.5,133.5C 237.356,135.992 249.356,137.325 261.5,137.5C 261.351,138.552 261.517,139.552 262,140.5C 264.333,136.5 266.667,136.5 269,140.5C 272.085,137.881 275.252,137.881 278.5,140.5C 281.284,137.531 284.45,135.198 288,133.5C 289.727,133.646 289.894,134.313 288.5,135.5C 290.045,136.452 291.712,136.785 293.5,136.5C 293.238,135.022 293.571,133.689 294.5,132.5C 295.298,132.957 295.631,133.624 295.5,134.5C 296.028,135.847 296.195,137.181 296,138.5C 295.259,139.641 294.425,139.641 293.5,138.5C 292.019,140.519 290.686,142.519 289.5,144.5C 282.834,146.598 276.167,148.765 269.5,151C 263.801,151.312 258.134,151.812 252.5,152.5C 247.534,151.754 242.534,151.087 237.5,150.5C 234.833,150.667 232.167,150.833 229.5,151C 225.399,151.775 223.566,154.275 224,158.5C 223.333,157.833 222.667,157.167 222,156.5C 222.409,158.225 222.242,159.892 221.5,161.5C 219.35,159.078 219.017,156.411 220.5,153.5C 217.833,149.5 215.167,149.5 212.5,153.5C 213.403,155.62 214.737,155.954 216.5,154.5C 217.93,159.255 216.93,160.089 213.5,157C 207.945,156.933 202.612,156.1 197.5,154.5C 197.688,156.103 197.188,157.437 196,158.5C 194.387,156.223 192.22,154.723 189.5,154C 187.809,150.721 186.809,147.221 186.5,143.5C 189.396,138.379 191.729,133.045 193.5,127.5C 193.5,127.167 193.5,126.833 193.5,126.5C 194.627,125.878 195.627,125.045 196.5,124C 215.497,123.5 234.497,123.333 253.5,123.5 Z"/></g>
<g><path style="opacity:1" fill="#a70f0d" d="M 123.5,132.5 C 124.496,132.414 125.329,132.748 126,133.5C 127.667,136.833 129.333,140.167 131,143.5C 131.671,144.252 132.504,144.586 133.5,144.5C 134.538,148.118 135.705,151.785 137,155.5C 138.039,156.71 139.206,157.71 140.5,158.5C 138.889,162.565 137.722,166.565 137,170.5C 136.273,167.136 135.44,163.803 134.5,160.5C 133.914,160.291 133.414,159.957 133,159.5C 131.647,160.704 129.981,161.371 128,161.5C 125.113,160.896 122.28,160.229 119.5,159.5C 119.5,160.5 119.5,161.5 119.5,162.5C 120.675,162.281 121.675,162.614 122.5,163.5C 120.741,164.754 119.241,164.421 118,162.5C 117.781,163.938 117.281,165.271 116.5,166.5C 115.614,165.675 115.281,164.675 115.5,163.5C 113.5,163.5 111.5,163.5 109.5,163.5C 109.649,162.448 109.483,161.448 109,160.5C 107.789,167.003 104.955,168.003 100.5,163.5C 99.8333,163.833 99.1667,164.167 98.5,164.5C 97.1512,161.493 95.1512,159.16 92.5,157.5C 92.5,156.833 92.1667,156.5 91.5,156.5C 92.3689,149.45 89.7023,144.45 83.5,141.5C 83.5,140.833 83.5,140.167 83.5,139.5C 86.7889,141.616 89.9556,143.949 93,146.5C 94.3109,144.018 94.4776,141.685 93.5,139.5C 94,139.167 94.5,138.833 95,138.5C 99.3779,142.137 103.878,142.137 108.5,138.5C 111.489,140.039 114.656,141.039 118,141.5C 118.872,137.819 120.706,134.819 123.5,132.5 Z"/></g>
<g><path style="opacity:1" fill="#881516" d="M 83.5,141.5 C 89.7023,144.45 92.3689,149.45 91.5,156.5C 88.4657,151.76 85.799,146.76 83.5,141.5 Z"/></g>
<g><path style="opacity:1" fill="#831716" d="M 289.5,144.5 C 282.048,149.492 273.715,152.658 264.5,154C 252.091,154.186 239.758,154.686 227.5,155.5C 235.617,153.845 243.95,152.845 252.5,152.5C 258.134,151.812 263.801,151.312 269.5,151C 276.167,148.765 282.834,146.598 289.5,144.5 Z"/></g>
<g><path style="opacity:0.992" fill="#841a1c" d="M 133.5,144.5 C 135.825,149.123 138.158,153.789 140.5,158.5C 139.206,157.71 138.039,156.71 137,155.5C 135.705,151.785 134.538,148.118 133.5,144.5 Z"/></g>
<g><path style="opacity:0.882" fill="#711716" d="M 181.5,150.5 C 180.247,155.256 178.58,159.923 176.5,164.5C 175.182,166.751 173.516,168.751 171.5,170.5C 174.31,163.547 177.643,156.88 181.5,150.5 Z"/></g>
<g><path style="opacity:1" fill="#a6100f" d="M 186.5,143.5 C 186.809,147.221 187.809,150.721 189.5,154C 192.22,154.723 194.387,156.223 196,158.5C 197.188,157.437 197.688,156.103 197.5,154.5C 202.612,156.1 207.945,156.933 213.5,157C 216.93,160.089 217.93,159.255 216.5,154.5C 214.737,155.954 213.403,155.62 212.5,153.5C 215.167,149.5 217.833,149.5 220.5,153.5C 219.017,156.411 219.35,159.078 221.5,161.5C 222.242,159.892 222.409,158.225 222,156.5C 222.667,157.167 223.333,157.833 224,158.5C 223.566,154.275 225.399,151.775 229.5,151C 232.167,150.833 234.833,150.667 237.5,150.5C 242.534,151.087 247.534,151.754 252.5,152.5C 243.95,152.845 235.617,153.845 227.5,155.5C 224.899,161.419 221.899,167.086 218.5,172.5C 216.914,173.148 215.247,173.648 213.5,174C 213.833,174.333 214.167,174.667 214.5,175C 212.016,177.594 208.85,178.761 205,178.5C 200.009,178.191 195.176,177.191 190.5,175.5C 187.916,176.393 185.249,176.726 182.5,176.5C 182.756,174.088 181.756,172.421 179.5,171.5C 179.522,172.995 179.189,174.662 178.5,176.5C 177.795,174.328 176.795,172.328 175.5,170.5C 176.348,168.591 176.682,166.591 176.5,164.5C 178.58,159.923 180.247,155.256 181.5,150.5C 181.833,149.833 182.167,149.167 182.5,148.5C 184.539,147.328 185.872,145.662 186.5,143.5 Z"/></g>
<g><path style="opacity:0.996" fill="#731212" d="M 91.5,156.5 C 92.1667,156.5 92.5,156.833 92.5,157.5C 96.4319,163.076 99.7652,169.076 102.5,175.5C 104.103,177.887 105.103,180.554 105.5,183.5C 101.774,177.727 98.2743,171.727 95,165.5C 93.2589,162.691 92.0922,159.691 91.5,156.5 Z"/></g>
<g><path style="opacity:1" fill="#990d0b" d="M 92.5,157.5 C 95.1512,159.16 97.1512,161.493 98.5,164.5C 99.1667,164.167 99.8333,163.833 100.5,163.5C 104.955,168.003 107.789,167.003 109,160.5C 109.483,161.448 109.649,162.448 109.5,163.5C 111.5,163.5 113.5,163.5 115.5,163.5C 115.281,164.675 115.614,165.675 116.5,166.5C 117.281,165.271 117.781,163.938 118,162.5C 119.241,164.421 120.741,164.754 122.5,163.5C 121.675,162.614 120.675,162.281 119.5,162.5C 119.5,161.5 119.5,160.5 119.5,159.5C 122.28,160.229 125.113,160.896 128,161.5C 129.981,161.371 131.647,160.704 133,159.5C 133.414,159.957 133.914,160.291 134.5,160.5C 135.44,163.803 136.273,167.136 137,170.5C 137.722,166.565 138.889,162.565 140.5,158.5C 141.737,159.965 142.737,161.632 143.5,163.5C 144.789,169.932 147.123,175.932 150.5,181.5C 149.782,183.137 149.616,184.803 150,186.5C 150.667,185.833 151.333,185.167 152,184.5C 153.44,187.046 154.606,189.713 155.5,192.5C 155.192,193.308 154.692,193.975 154,194.5C 152.47,192.774 151.47,190.774 151,188.5C 142.71,188.559 134.21,188.559 125.5,188.5C 125.5,189.5 125.5,190.5 125.5,191.5C 121.889,191.044 118.556,191.711 115.5,193.5C 114.119,193 113.453,192 113.5,190.5C 116.483,186.453 115.483,183.786 110.5,182.5C 109.476,183.853 108.143,184.52 106.5,184.5C 106.579,181.729 106.079,179.063 105,176.5C 104.329,175.748 103.496,175.414 102.5,175.5C 99.7652,169.076 96.4319,163.076 92.5,157.5 Z"/></g>
<g><path style="opacity:1" fill="#7c1415" d="M 143.5,163.5 C 147.229,169.917 150.563,176.583 153.5,183.5C 152.5,182.833 151.5,182.167 150.5,181.5C 147.123,175.932 144.789,169.932 143.5,163.5 Z"/></g>
<g><path style="opacity:1" fill="#9a0e0b" d="M 176.5,164.5 C 176.682,166.591 176.348,168.591 175.5,170.5C 176.795,172.328 177.795,174.328 178.5,176.5C 179.189,174.662 179.522,172.995 179.5,171.5C 181.756,172.421 182.756,174.088 182.5,176.5C 185.249,176.726 187.916,176.393 190.5,175.5C 195.176,177.191 200.009,178.191 205,178.5C 208.85,178.761 212.016,177.594 214.5,175C 214.167,174.667 213.833,174.333 213.5,174C 215.247,173.648 216.914,173.148 218.5,172.5C 217.008,176.818 215.008,180.818 212.5,184.5C 211.265,184.721 210.265,185.388 209.5,186.5C 207.311,189.656 205.644,192.989 204.5,196.5C 202.179,196.771 200.179,196.104 198.5,194.5C 195.7,195.732 192.7,196.399 189.5,196.5C 185.546,196.006 181.712,196.006 178,196.5C 174.06,194.85 169.893,194.017 165.5,194C 163.982,190.708 164.649,187.875 167.5,185.5C 168.026,180.463 169.359,175.796 171.5,171.5C 171.5,171.167 171.5,170.833 171.5,170.5C 173.516,168.751 175.182,166.751 176.5,164.5 Z"/></g>
<g><path style="opacity:1" fill="#8f0c09" d="M 171.5,171.5 C 169.359,175.796 168.026,180.463 167.5,185.5C 164.649,187.875 163.982,190.708 165.5,194C 169.893,194.017 174.06,194.85 178,196.5C 181.712,196.006 185.546,196.006 189.5,196.5C 192.7,196.399 195.7,195.732 198.5,194.5C 200.179,196.104 202.179,196.771 204.5,196.5C 205.644,192.989 207.311,189.656 209.5,186.5C 210.265,185.388 211.265,184.721 212.5,184.5C 210.674,189.484 208.341,194.151 205.5,198.5C 202.625,200.249 201.292,202.915 201.5,206.5C 199.989,207.502 198.322,208.169 196.5,208.5C 196.662,210.527 196.495,212.527 196,214.5C 193.034,211.987 190.201,211.987 187.5,214.5C 187.53,213.503 187.03,212.836 186,212.5C 184.395,213.101 183.062,214.101 182,215.5C 180.146,210.322 176.979,209.322 172.5,212.5C 170.178,211.254 167.844,209.92 165.5,208.5C 157.528,207.502 149.528,207.169 141.5,207.5C 141.5,209.167 141.5,210.833 141.5,212.5C 138.833,212.5 136.167,212.5 133.5,212.5C 133.785,210.712 133.452,209.045 132.5,207.5C 130.804,209.546 129.471,211.879 128.5,214.5C 127.555,211.212 126.888,207.879 126.5,204.5C 124.712,204.215 123.045,204.548 121.5,205.5C 123.009,207.902 123.342,210.235 122.5,212.5C 120.836,210.592 119.169,208.592 117.5,206.5C 115.462,204.13 113.628,201.463 112,198.5C 109.555,193.576 107.388,188.576 105.5,183.5C 105.103,180.554 104.103,177.887 102.5,175.5C 103.496,175.414 104.329,175.748 105,176.5C 106.079,179.063 106.579,181.729 106.5,184.5C 108.143,184.52 109.476,183.853 110.5,182.5C 115.483,183.786 116.483,186.453 113.5,190.5C 113.453,192 114.119,193 115.5,193.5C 118.556,191.711 121.889,191.044 125.5,191.5C 125.5,190.5 125.5,189.5 125.5,188.5C 134.21,188.559 142.71,188.559 151,188.5C 151.47,190.774 152.47,192.774 154,194.5C 154.692,193.975 155.192,193.308 155.5,192.5C 154.606,189.713 153.44,187.046 152,184.5C 151.333,185.167 150.667,185.833 150,186.5C 149.616,184.803 149.782,183.137 150.5,181.5C 151.5,182.167 152.5,182.833 153.5,183.5C 155.019,187.199 157.186,190.532 160,193.5C 163.386,185.767 167.22,178.434 171.5,171.5 Z"/></g>
<g><path style="opacity:0.031" fill="#570c0d" d="M 205.5,198.5 C 204.35,201.298 203.017,203.965 201.5,206.5C 201.292,202.915 202.625,200.249 205.5,198.5 Z"/></g>
<g><path style="opacity:1" fill="#8b0b06" d="M 187.5,214.5 C 186.717,216.076 185.55,217.409 184,218.5C 183.988,222.273 182.821,225.606 180.5,228.5C 182.335,229.428 182.668,230.594 181.5,232C 176.172,232.169 170.838,232.002 165.5,231.5C 165.5,230.5 165.5,229.5 165.5,228.5C 159.509,228.034 153.509,227.701 147.5,227.5C 148.101,230.549 148.601,233.549 149,236.5C 146.752,233.672 144.752,230.672 143,227.5C 141.649,229.019 140.149,230.352 138.5,231.5C 136.421,228.255 133.588,225.922 130,224.5C 129.781,223.062 129.281,221.729 128.5,220.5C 127.735,221.612 126.735,222.279 125.5,222.5C 125.058,218.963 124.058,215.63 122.5,212.5C 123.342,210.235 123.009,207.902 121.5,205.5C 123.045,204.548 124.712,204.215 126.5,204.5C 126.888,207.879 127.555,211.212 128.5,214.5C 129.471,211.879 130.804,209.546 132.5,207.5C 133.452,209.045 133.785,210.712 133.5,212.5C 136.167,212.5 138.833,212.5 141.5,212.5C 141.5,210.833 141.5,209.167 141.5,207.5C 149.528,207.169 157.528,207.502 165.5,208.5C 167.844,209.92 170.178,211.254 172.5,212.5C 176.979,209.322 180.146,210.322 182,215.5C 183.062,214.101 184.395,213.101 186,212.5C 187.03,212.836 187.53,213.503 187.5,214.5 Z"/></g>
<g><path style="opacity:1" fill="#63110f" d="M 117.5,206.5 C 119.169,208.592 120.836,210.592 122.5,212.5C 124.058,215.63 125.058,218.963 125.5,222.5C 125.5,222.833 125.5,223.167 125.5,223.5C 122.034,218.234 119.368,212.568 117.5,206.5 Z"/></g>
<g><path style="opacity:1" fill="#830b06" d="M 201.5,206.5 C 197.017,215.965 192.35,225.298 187.5,234.5C 185.815,235.184 184.815,236.517 184.5,238.5C 183.675,239.386 182.675,239.719 181.5,239.5C 181.5,241.5 181.5,243.5 181.5,245.5C 181.5,245.833 181.5,246.167 181.5,246.5C 178.697,249.417 176.363,252.75 174.5,256.5C 173.548,258.045 173.215,259.712 173.5,261.5C 172.674,264.485 171.341,267.151 169.5,269.5C 168.5,269.5 167.5,269.5 166.5,269.5C 166.007,271.806 165.674,274.139 165.5,276.5C 164.022,276.238 162.689,276.571 161.5,277.5C 162.309,279.071 162.643,280.738 162.5,282.5C 161.264,286.121 159.264,286.455 156.5,283.5C 150.725,273.813 145.725,263.813 141.5,253.5C 139.578,247.984 136.912,242.984 133.5,238.5C 130.084,233.935 127.417,228.935 125.5,223.5C 125.5,223.167 125.5,222.833 125.5,222.5C 126.735,222.279 127.735,221.612 128.5,220.5C 129.281,221.729 129.781,223.062 130,224.5C 133.588,225.922 136.421,228.255 138.5,231.5C 140.149,230.352 141.649,229.019 143,227.5C 144.752,230.672 146.752,233.672 149,236.5C 148.601,233.549 148.101,230.549 147.5,227.5C 153.509,227.701 159.509,228.034 165.5,228.5C 165.5,229.5 165.5,230.5 165.5,231.5C 170.838,232.002 176.172,232.169 181.5,232C 182.668,230.594 182.335,229.428 180.5,228.5C 182.821,225.606 183.988,222.273 184,218.5C 185.55,217.409 186.717,216.076 187.5,214.5C 190.201,211.987 193.034,211.987 196,214.5C 196.495,212.527 196.662,210.527 196.5,208.5C 198.322,208.169 199.989,207.502 201.5,206.5 Z"/></g>
<g><path style="opacity:0.863" fill="#5a100c" d="M 187.5,234.5 C 186.244,238.687 184.244,242.354 181.5,245.5C 181.5,243.5 181.5,241.5 181.5,239.5C 182.675,239.719 183.675,239.386 184.5,238.5C 184.815,236.517 185.815,235.184 187.5,234.5 Z"/></g>
<g><path style="opacity:0.243" fill="#540d0f" d="M 133.5,238.5 C 136.912,242.984 139.578,247.984 141.5,253.5C 138.073,248.984 135.407,243.984 133.5,238.5 Z"/></g>
<g><path style="opacity:0.976" fill="#5e0f10" d="M 181.5,246.5 C 179.099,251.635 176.432,256.635 173.5,261.5C 173.215,259.712 173.548,258.045 174.5,256.5C 176.363,252.75 178.697,249.417 181.5,246.5 Z"/></g>
<g><path style="opacity:1" fill="#630d0d" d="M 169.5,269.5 C 167.926,274.32 165.593,278.653 162.5,282.5C 162.643,280.738 162.309,279.071 161.5,277.5C 162.689,276.571 164.022,276.238 165.5,276.5C 165.674,274.139 166.007,271.806 166.5,269.5C 167.5,269.5 168.5,269.5 169.5,269.5 Z"/></g>
</svg>
